<svg width="23" height="23" viewBox="0 0 23 23" fill="none" xmlns="http://www.w3.org/2000/svg">
<path d="M5.27397 0.0622705C6.14548 -0.17133 7.06191 0.268917 7.40332 1.10449L9.20025 5.4171C9.50572 6.15384 9.2901 6.9984 8.67914 7.50153L6.46893 9.31643C7.96037 12.479 10.521 15.0396 13.6836 16.5311L15.4985 14.3119C16.0016 13.7009 16.8462 13.4853 17.5829 13.7908L21.8955 15.5877C22.7311 15.9381 23.1713 16.8455 22.9377 17.717L21.8596 21.6703C21.6439 22.4609 20.9342 23 20.1255 23C9.01157 23 0 13.9884 0 2.87446C0 2.06584 0.539077 1.35606 1.32074 1.14042L5.27397 0.0622705Z" fill="#00ACEC"/>
<path d="M5.27397 0.0622705C6.14548 -0.17133 7.06191 0.268917 7.40332 1.10449L9.20025 5.4171C9.50572 6.15384 9.2901 6.9984 8.67914 7.50153L6.46893 9.31643C7.96037 12.479 10.521 15.0396 13.6836 16.5311L15.4985 14.3119C16.0016 13.7009 16.8462 13.4853 17.5829 13.7908L21.8955 15.5877C22.7311 15.9381 23.1713 16.8455 22.9377 17.717L21.8596 21.6703C21.6439 22.4609 20.9342 23 20.1255 23C9.01157 23 0 13.9884 0 2.87446C0 2.06584 0.539077 1.35606 1.32074 1.14042L5.27397 0.0622705Z" fill="#00ACEC"/>
</svg>
