<svg width="15" height="12" viewBox="0 0 15 12" fill="none" xmlns="http://www.w3.org/2000/svg">
<path d="M2.4375 5.23139e-09H12.5625C13.1851 -4.076e-05 13.7841 0.238165 14.2367 0.665754C14.6892 1.09334 14.961 1.6779 14.9963 2.2995L15 2.4375V9.5625C15 10.1851 14.7618 10.7841 14.3342 11.2367C13.9067 11.6892 13.3221 11.961 12.7005 11.9963L12.5625 12H2.4375C1.8149 12 1.21588 11.7618 0.763327 11.3342C0.310775 10.9067 0.038999 10.3221 0.00375009 9.7005L5.23139e-09 9.5625V2.4375C-4.076e-05 1.8149 0.238166 1.21588 0.665754 0.763327C1.09334 0.310775 1.6779 0.038999 2.2995 0.00375009L2.4375 5.23139e-09H12.5625H2.4375ZM13.875 4.02975L7.7625 7.24725C7.69348 7.28371 7.61763 7.30541 7.53977 7.31096C7.46191 7.31651 7.38374 7.3058 7.31025 7.2795L7.23825 7.248L1.125 4.0305V9.5625C1.12501 9.89189 1.24888 10.2092 1.47201 10.4515C1.69514 10.6938 2.00122 10.8434 2.3295 10.8705L2.4375 10.875H12.5625C12.892 10.875 13.2095 10.751 13.4518 10.5277C13.6941 10.3044 13.8436 9.99816 13.8705 9.66975L13.875 9.5625V4.02975ZM12.5625 1.125H2.4375C2.10811 1.12501 1.79076 1.24888 1.54846 1.47201C1.30615 1.69514 1.1566 2.00122 1.1295 2.3295L1.125 2.4375V2.75925L7.5 6.114L13.875 2.7585V2.4375C13.875 2.10799 13.751 1.79054 13.5277 1.54822C13.3044 1.3059 12.9982 1.15643 12.6698 1.1295L12.5625 1.125Z" fill="white"/>
</svg>
