<svg width="54" height="54" viewBox="0 0 54 54" fill="none" xmlns="http://www.w3.org/2000/svg">
<path d="M36 13.5H13.5L2.25 27V33.75H6.75C6.75 35.5402 7.46116 37.2571 8.72703 38.523C9.9929 39.7888 11.7098 40.5 13.5 40.5C15.2902 40.5 17.0071 39.7888 18.273 38.523C19.5388 37.2571 20.25 35.5402 20.25 33.75H33.75C33.75 35.5402 34.4612 37.2571 35.727 38.523C36.9929 39.7888 38.7098 40.5 40.5 40.5C42.2902 40.5 44.0071 39.7888 45.273 38.523C46.5388 37.2571 47.25 35.5402 47.25 33.75H51.75V27C51.75 24.5025 49.7475 22.5 47.25 22.5H42.75L36 13.5ZM14.625 16.875H23.625V22.5H10.125L14.625 16.875ZM27 16.875H34.875L39.285 22.5H27V16.875ZM13.5 30.375C14.3951 30.375 15.2536 30.7306 15.8865 31.3635C16.5194 31.9964 16.875 32.8549 16.875 33.75C16.875 34.6451 16.5194 35.5035 15.8865 36.1365C15.2536 36.7694 14.3951 37.125 13.5 37.125C12.6049 37.125 11.7464 36.7694 11.1135 36.1365C10.4806 35.5035 10.125 34.6451 10.125 33.75C10.125 32.8549 10.4806 31.9964 11.1135 31.3635C11.7464 30.7306 12.6049 30.375 13.5 30.375ZM40.5 30.375C41.3951 30.375 42.2535 30.7306 42.8865 31.3635C43.5194 31.9964 43.875 32.8549 43.875 33.75C43.875 34.6451 43.5194 35.5035 42.8865 36.1365C42.2535 36.7694 41.3951 37.125 40.5 37.125C39.6049 37.125 38.7465 36.7694 38.1135 36.1365C37.4806 35.5035 37.125 34.6451 37.125 33.75C37.125 32.8549 37.4806 31.9964 38.1135 31.3635C38.7465 30.7306 39.6049 30.375 40.5 30.375Z" fill="white"/>
</svg>
