<svg width="15" height="15" viewBox="0 0 15 15" fill="none" xmlns="http://www.w3.org/2000/svg">
<path d="M3.89063 0.869473C4.39585 0.734053 4.92711 0.989268 5.12503 1.47366L6.16673 3.97372C6.34382 4.40082 6.21882 4.89042 5.86464 5.18209L4.58335 6.2342C5.44796 8.06758 6.93237 9.552 8.76576 10.4166L9.81787 9.13011C10.1095 8.77594 10.5991 8.65093 11.0262 8.82802L13.5263 9.86972C14.0107 10.0728 14.2659 10.5989 14.1305 11.1041L13.5055 13.3959C13.3805 13.8542 12.969 14.1667 12.5002 14.1667C6.05735 14.1667 0.833252 8.94261 0.833252 2.49973C0.833252 2.03096 1.14576 1.61949 1.5989 1.49449L3.89063 0.869473Z" fill="#F88015"/>
<path d="M3.89063 0.869473C4.39585 0.734053 4.92711 0.989268 5.12503 1.47366L6.16673 3.97372C6.34382 4.40082 6.21882 4.89042 5.86464 5.18209L4.58335 6.2342C5.44796 8.06758 6.93237 9.552 8.76576 10.4166L9.81787 9.13011C10.1095 8.77594 10.5991 8.65093 11.0262 8.82802L13.5263 9.86972C14.0107 10.0728 14.2659 10.5989 14.1305 11.1041L13.5055 13.3959C13.3805 13.8542 12.969 14.1667 12.5002 14.1667C6.05735 14.1667 0.833252 8.94261 0.833252 2.49973C0.833252 2.03096 1.14576 1.61949 1.5989 1.49449L3.89063 0.869473Z" fill="#F88015"/>
</svg>
