<?xml version="1.0" encoding="utf-8"?><svg xmlns="http://www.w3.org/2000/svg" xmlns:xlink="http://www.w3.org/1999/xlink"><symbol viewBox="0 0 15 15" id="Vector" xmlns="http://www.w3.org/2000/svg"><path d="M3.89.87a1.04 1.04 0 011.235.604l1.042 2.5c.177.427.052.916-.302 1.208L4.583 6.234a8.769 8.769 0 004.183 4.183L9.818 9.13c.292-.354.781-.48 1.208-.302l2.5 1.042c.485.203.74.729.604 1.234l-.625 2.292a1.04 1.04 0 01-1.005.77C6.057 14.167.833 8.944.833 2.5c0-.469.313-.88.766-1.006L3.89.87z"/><path d="M3.89.87a1.04 1.04 0 011.235.604l1.042 2.5c.177.427.052.916-.302 1.208L4.583 6.234a8.769 8.769 0 004.183 4.183L9.818 9.13c.292-.354.781-.48 1.208-.302l2.5 1.042c.485.203.74.729.604 1.234l-.625 2.292a1.04 1.04 0 01-1.005.77C6.057 14.167.833 8.944.833 2.5c0-.469.313-.88.766-1.006L3.89.87z"/></symbol><symbol viewBox="0 0 15 15" id="call" xmlns="http://www.w3.org/2000/svg"><path d="M3.89.87a1.04 1.04 0 011.235.604l1.042 2.5c.177.427.052.916-.302 1.208L4.583 6.234a8.769 8.769 0 004.183 4.183L9.818 9.13c.292-.354.781-.48 1.208-.302l2.5 1.042c.485.203.74.729.604 1.234l-.625 2.292a1.04 1.04 0 01-1.005.77C6.057 14.167.833 8.944.833 2.5c0-.469.313-.88.766-1.006L3.89.87z"/><path d="M3.89.87a1.04 1.04 0 011.235.604l1.042 2.5c.177.427.052.916-.302 1.208L4.583 6.234a8.769 8.769 0 004.183 4.183L9.818 9.13c.292-.354.781-.48 1.208-.302l2.5 1.042c.485.203.74.729.604 1.234l-.625 2.292a1.04 1.04 0 01-1.005.77C6.057 14.167.833 8.944.833 2.5c0-.469.313-.88.766-1.006L3.89.87z"/></symbol><symbol viewBox="0 0 14 14" id="clock" xmlns="http://www.w3.org/2000/svg"><path d="M7 12.6A5.6 5.6 0 107 1.4a5.6 5.6 0 000 11.2zM7 0a7 7 0 010 14c-3.871 0-7-3.15-7-7a7 7 0 017-7zm.35 3.5v3.675l3.15 1.869-.525.861L6.3 7.7V3.5h1.05z"/></symbol><symbol viewBox="0 0 25 25" id="close" xmlns="http://www.w3.org/2000/svg"><path d="M0 21.213L21.213 0l2.828 2.828L2.828 24.042z"/><path d="M3 .213l21.213 21.213-2.828 2.829L.172 3.042z"/></symbol><symbol viewBox="0 0 15 12" id="mail" xmlns="http://www.w3.org/2000/svg"><path d="M2.438 0h10.124a2.438 2.438 0 012.434 2.3l.004.138v7.124a2.438 2.438 0 01-2.3 2.434l-.137.004H2.437A2.438 2.438 0 01.005 9.7L0 9.563V2.436A2.438 2.438 0 012.3.005L2.438 0h10.124H2.438zm11.437 4.03L7.763 7.247a.562.562 0 01-.453.032l-.072-.031L1.125 4.03v5.532a1.312 1.312 0 001.204 1.309l.108.004h10.126A1.312 1.312 0 0013.87 9.67l.005-.107V4.03zm-1.313-2.905H2.438a1.312 1.312 0 00-1.309 1.204l-.004.108v.322L7.5 6.114l6.375-3.355v-.321a1.312 1.312 0 00-1.205-1.309l-.107-.004z"/></symbol><symbol viewBox="0 0 60 36" id="ours-0" xmlns="http://www.w3.org/2000/svg"><g clip-path="url(#fclip0_123_296)"><path d="M56 0H4a4 4 0 00-4 4v28a4 4 0 004 4h52a4 4 0 004-4V4a4 4 0 00-4-4zM16.75 32L4 21.075v-6.15L16.75 4h26.5L56 14.925v6.15L43.25 32h-26.5zM40 18a10 10 0 11-20 0 10 10 0 0120 0z"/></g><defs><clipPath id="fclip0_123_296"><path d="M0 0h60v36H0z"/></clipPath></defs></symbol><symbol viewBox="0 0 60 60" id="ours-1" xmlns="http://www.w3.org/2000/svg"><path d="M32.813 18.75v9.633l8.343 4.805a2.836 2.836 0 011.032 3.843 2.86 2.86 0 01-2.438 1.407 2.741 2.741 0 01-1.406-.376l-9.75-5.624-.07-.047-.141-.094-.094-.07-.117-.094-.117-.094-.07-.094-.118-.117-.07-.07-.094-.14-.07-.095-.07-.117-.07-.117-.048-.117-.07-.14c0-.048-.023-.071-.023-.118a.328.328 0 01-.047-.14l-.047-.118c0-.047-.023-.093-.023-.14 0-.047-.024-.094-.024-.141v-.14a.352.352 0 01-.023-.165V18.75a2.812 2.812 0 115.625 0zm20.273 7.383l.14-.047h.141l.117-.047.141-.047.117-.047.117-.07.118-.07.117-.07.117-.094.117-.07a.704.704 0 00.188-.188h.023l.164-.211.094-.094.07-.117.094-.117.047-.117.07-.141.07-.117a.187.187 0 01.047-.117c0-.047.024-.094.024-.141 0-.047.023-.094.047-.117.023-.024.023-.094.023-.14a.468.468 0 00.024-.165.211.211 0 00.023-.117c0-.094.023-.188.023-.281v-9.375a2.812 2.812 0 10-5.625 0v2.578L46.57 13.43a23.437 23.437 0 100 33.14 2.811 2.811 0 000-3.984 2.86 2.86 0 00-3.984 0 17.788 17.788 0 110-25.172l3.164 3.14h-2.578a2.812 2.812 0 100 5.626h9.914v-.047z"/></symbol><symbol viewBox="0 0 60 54" id="ours-2" xmlns="http://www.w3.org/2000/svg"><g clip-path="url(#hclip0_123_298)"><path d="M9.405 17.67c2.799-2.175 5.121-.675 8.22 2.913.348.405.816-.069 1.083-.3.264-.234 4.353-3.915 4.554-4.083.198-.177.438-.507.123-.876-.759-.939-1.502-1.89-2.229-2.853C15.732 5.376 35.994.564 32.883.489 31.299.447 24.945.372 23.994.477c-3.849.405-8.682 4.002-11.115 5.679-3.183 2.178-4.371 3.456-4.566 3.633-.9.786-.144 2.601-1.776 4.032-1.725 1.509-2.802.366-3.801 1.242-.495.438-1.881 1.476-2.277 1.821-.399.351-.471.942-.063 1.413 0 0 3.792 4.188 4.11 4.56.315.366 1.173.684 1.701.213.531-.468 1.896-1.659 2.124-1.869.234-.198-.15-2.583 1.074-3.531zm13.556-2.873c-.36-.417-.807-.43-1.19-.087l-4.563 4.108a.867.867 0 00-.08 1.2l28.709 32.389c.582.669 1.59.738 2.253.159L51 50.127a1.62 1.62 0 00.156-2.274L22.961 14.797zM59.706 7.17c-.222-1.482-.99-1.173-1.389-.546-.399.633-2.163 3.306-2.889 4.518-.72 1.2-2.496 3.573-5.802 1.23-3.444-2.433-2.247-4.131-1.647-5.274.603-1.149 2.454-4.371 2.721-4.77.267-.405-.045-1.581-1.113-1.089-1.071.492-7.569 3.075-8.469 6.78-.921 3.768.771 7.137-2.55 10.482l-4.029 4.2 4.047 4.698 4.962-4.71c1.182-1.188 3.708-2.343 5.994-1.821 4.899 1.107 7.572-.732 9.183-3.774 1.446-2.718 1.206-8.442.981-9.924zM8.217 48.159a1.614 1.614 0 000 2.274l2.853 2.79c.624.627 1.614.363 2.238-.264l14.721-14.472-4.509-5.142L8.217 48.159z"/></g><defs><clipPath id="hclip0_123_298"><path d="M0 0h60v54H0z"/></clipPath></defs></symbol><symbol viewBox="0 0 54 54" id="ours-3" xmlns="http://www.w3.org/2000/svg"><path d="M36 13.5H13.5L2.25 27v6.75h4.5a6.75 6.75 0 0013.5 0h13.5a6.75 6.75 0 0013.5 0h4.5V27c0-2.497-2.002-4.5-4.5-4.5h-4.5l-6.75-9zm-21.375 3.375h9V22.5h-13.5l4.5-5.625zm12.375 0h7.875l4.41 5.625H27v-5.625zm-13.5 13.5a3.375 3.375 0 110 6.75 3.375 3.375 0 010-6.75zm27 0a3.375 3.375 0 110 6.75 3.375 3.375 0 010-6.75z"/></symbol><symbol viewBox="0 0 38 38" id="ours-4" xmlns="http://www.w3.org/2000/svg"><g clip-path="url(#jclip0_142_937)"><path d="M36.48 0H1.52C.68 0 0 .68 0 1.52v34.96C0 37.32.68 38 1.52 38h34.96c.84 0 1.52-.68 1.52-1.52V1.52C38 .68 37.32 0 36.48 0zM15.59 31.017h-2.413a.365.365 0 01-.28-.137l-1.687-2.066-1.686 2.066a.35.35 0 01-.28.137H6.83c-.314 0-.485-.375-.276-.622l2.978-3.648-2.907-3.558c-.204-.247-.033-.622.28-.622h2.418c.105 0 .214.052.28.138l1.616 1.976 1.614-1.976a.35.35 0 01.28-.138h2.414c.313 0 .484.375.28.622l-2.912 3.553 2.978 3.648c.2.252.029.627-.285.627zm.37-18.144c0 .104-.067.19-.152.19H12.54v3.263c0 .09-.085.157-.19.157h-2.28c-.104 0-.19-.067-.19-.152v-3.268H6.612c-.085 0-.152-.086-.152-.19v-2.28c0-.105.067-.19.152-.19H9.88v-3.27c0-.085.085-.152.19-.152h2.28c.104 0 .19.067.19.152v3.268h3.263c.09 0 .157.086.157.19v2.28zM31.54 30.4c0 .105-.066.19-.152.19h-9.196c-.085 0-.152-.085-.152-.19v-2.28c0-.105.067-.19.152-.19h9.191c.09 0 .157.085.157.19v2.28zm0-4.94c0 .104-.066.19-.152.19h-9.196c-.085 0-.152-.085-.152-.19v-2.28c0-.104.067-.19.152-.19h9.191c.09 0 .157.086.157.19v2.28zm0-12.588c0 .105-.066.19-.152.19h-9.196c-.085 0-.152-.085-.152-.19v-2.28c0-.104.067-.19.152-.19h9.191c.09 0 .157.086.157.19v2.28z"/></g><defs><clipPath id="jclip0_142_937"><path d="M0 0h38v38H0z"/></clipPath></defs></symbol><symbol viewBox="0 0 38 38" id="ours-5" xmlns="http://www.w3.org/2000/svg"><g clip-path="url(#kclip0_142_941)"><path d="M19 0C8.55 0 0 8.55 0 19s8.55 19 19 19 19-8.55 19-19S29.45 0 19 0zm8.17 25.08L17.1 19.57V9.5h2.85v8.36l8.55 4.75-1.33 2.47z"/></g><defs><clipPath id="kclip0_142_941"><path d="M0 0h38v38H0z"/></clipPath></defs></symbol><symbol viewBox="0 0 28 28" id="wa" xmlns="http://www.w3.org/2000/svg"><path fill-rule="evenodd" clip-rule="evenodd" d="M14 0C6.262 0 0 6.258 0 14c0 2.92.89 5.62 2.472 7.94a.7.7 0 01.087.602L1.137 27.3l4.66-1.608a.7.7 0 01.602.077 13.917 13.917 0 007.6 2.231C21.743 28 28 21.742 28 14S21.742 0 14 0zM8.27 6.103l2.548 4.211-1.06 1.05a.7.7 0 00-.11.842c1.62 2.804 3.537 4.985 6.223 6.17a.7.7 0 00.777-.143l1.127-1.126 4.112 2.57c-.455 1.025-1.049 1.635-1.728 1.99-.787.412-1.747.49-2.844.263-2.193-.455-4.841-2.178-7-4.386-2.158-2.208-3.829-4.893-4.254-7.077-.213-1.092-.12-2.033.284-2.778.347-.642.937-1.192 1.925-1.586z"/></symbol></svg>