<svg width="60" height="60" viewBox="0 0 60 60" fill="none" xmlns="http://www.w3.org/2000/svg">
<path d="M32.8126 18.75V28.3828L41.1564 33.1875C41.7985 33.5645 42.2665 34.179 42.4594 34.8981C42.6524 35.6173 42.5547 36.3835 42.1876 37.0313C41.9371 37.4559 41.5809 37.8086 41.1538 38.055C40.7267 38.3014 40.2432 38.4332 39.7501 38.4375C39.2562 38.4415 38.7703 38.3119 38.3439 38.0625L28.5939 32.4375L28.5236 32.3906L28.3829 32.2969L28.2892 32.2266L28.172 32.1328L28.0548 32.0391L27.9845 31.9453L27.8673 31.8281L27.797 31.7578L27.7032 31.6172L27.6329 31.5234L27.5626 31.4063L27.4923 31.2891L27.4454 31.1719L27.3751 31.0313C27.3751 30.9844 27.3517 30.9609 27.3517 30.9141C27.3255 30.8714 27.3095 30.8233 27.3048 30.7734L27.2579 30.6563C27.2579 30.6094 27.2345 30.5625 27.2345 30.5156C27.2345 30.4688 27.2111 30.4219 27.2111 30.375V30.2344C27.1903 30.1823 27.1823 30.1261 27.1876 30.0703V18.75C27.1876 18.0041 27.4839 17.2887 28.0114 16.7613C28.5388 16.2338 29.2542 15.9375 30.0001 15.9375C30.746 15.9375 31.4614 16.2338 31.9889 16.7613C32.5163 17.2887 32.8126 18.0041 32.8126 18.75ZM53.0861 26.1328L53.2267 26.0859H53.3673L53.4845 26.0391L53.6251 25.9922L53.7423 25.9453L53.8595 25.875L53.9767 25.8047L54.0939 25.7344L54.2111 25.6406L54.3283 25.5703C54.4021 25.5203 54.4657 25.4566 54.5158 25.3828H54.5392L54.7033 25.1719L54.797 25.0781L54.8673 24.9609L54.9611 24.8438L55.0079 24.7266L55.0783 24.5859L55.1486 24.4688C55.1502 24.4255 55.1667 24.384 55.1954 24.3516C55.1954 24.3047 55.2189 24.2578 55.2189 24.2109C55.2189 24.1641 55.2423 24.1172 55.2658 24.0938C55.2892 24.0703 55.2892 24 55.2892 23.9531C55.3067 23.9003 55.3146 23.8447 55.3126 23.7891C55.3316 23.7531 55.3397 23.7124 55.3361 23.6719C55.3361 23.5781 55.3595 23.4844 55.3595 23.3906V14.0156C55.3595 13.2697 55.0632 12.5543 54.5357 12.0269C54.0083 11.4995 53.2929 11.2031 52.547 11.2031C51.8011 11.2031 51.0857 11.4995 50.5583 12.0269C50.0308 12.5543 49.7345 13.2697 49.7345 14.0156V16.5938L46.5704 13.4297C43.2929 10.1512 39.1168 7.91829 34.5702 7.01337C30.0235 6.10846 25.3107 6.57219 21.0276 8.34591C16.7446 10.1196 13.0837 13.1237 10.508 16.9781C7.93238 20.8325 6.55762 25.3642 6.55762 30C6.55762 34.6358 7.93238 39.1675 10.508 43.0219C13.0837 46.8764 16.7446 49.8804 21.0276 51.6541C25.3107 53.4278 30.0235 53.8916 34.5702 52.9866C39.1168 52.0817 43.2929 49.8488 46.5704 46.5703C46.8326 46.309 47.0407 45.9986 47.1826 45.6567C47.3246 45.3148 47.3977 44.9483 47.3977 44.5781C47.3977 44.208 47.3246 43.8414 47.1826 43.4996C47.0407 43.1577 46.8326 42.8472 46.5704 42.5859C46.0368 42.0676 45.3222 41.7777 44.5783 41.7777C43.8343 41.7777 43.1197 42.0676 42.5861 42.5859C40.0974 45.0718 36.9277 46.764 33.4775 47.4487C30.0273 48.1335 26.4515 47.78 23.2022 46.433C19.9529 45.086 17.1758 42.8059 15.222 39.881C13.2682 36.956 12.2254 33.5175 12.2254 30C12.2254 26.4825 13.2682 23.044 15.222 20.119C17.1758 17.1941 19.9529 14.914 23.2022 13.567C26.4515 12.22 30.0273 11.8665 33.4775 12.5513C36.9277 13.236 40.0974 14.9283 42.5861 17.4141L45.7501 20.5547H43.172C42.4261 20.5547 41.7107 20.851 41.1833 21.3785C40.6558 21.9059 40.3595 22.6213 40.3595 23.3672C40.3595 24.1131 40.6558 24.8285 41.1833 25.3559C41.7107 25.8834 42.4261 26.1797 43.172 26.1797H53.0861V26.1328Z" fill="white"/>
</svg>
