<svg width="60" height="54" viewBox="0 0 60 54" fill="none" xmlns="http://www.w3.org/2000/svg">
<g clip-path="url(#clip0_123_298)">
<path d="M9.40503 17.67C12.204 15.495 14.526 16.995 17.625 20.583C17.973 20.988 18.441 20.514 18.708 20.283C18.972 20.049 23.061 16.368 23.262 16.2C23.46 16.023 23.7 15.693 23.385 15.324C22.6262 14.3854 21.8831 13.4343 21.156 12.471C15.732 5.376 35.994 0.564004 32.883 0.489004C31.299 0.447004 24.945 0.372004 23.994 0.477004C20.145 0.882004 15.312 4.479 12.879 6.156C9.69603 8.334 8.50803 9.612 8.31303 9.789C7.41303 10.575 8.16903 12.39 6.53703 13.821C4.81203 15.33 3.73503 14.187 2.73603 15.063C2.24103 15.501 0.855034 16.539 0.459034 16.884C0.0600339 17.235 -0.0119662 17.826 0.396034 18.297C0.396034 18.297 4.18803 22.485 4.50603 22.857C4.82103 23.223 5.67903 23.541 6.20703 23.07C6.73803 22.602 8.10303 21.411 8.33103 21.201C8.56503 21.003 8.18103 18.618 9.40503 17.67ZM22.9614 14.7967C22.6014 14.3797 22.1544 14.3677 21.7704 14.7097L17.2083 18.8178C17.0423 18.9685 16.941 19.1777 16.9259 19.4014C16.9108 19.6252 16.983 19.8461 17.1273 20.0178L45.837 52.407C46.419 53.076 47.427 53.145 48.09 52.566L51 50.127C51.3203 49.8449 51.5164 49.4479 51.5456 49.0221C51.5748 48.5963 51.4348 48.1762 51.156 47.853L22.9614 14.7967ZM59.706 7.17C59.484 5.688 58.716 5.997 58.317 6.624C57.918 7.257 56.154 9.93001 55.428 11.142C54.708 12.342 52.932 14.715 49.626 12.372C46.182 9.939 47.379 8.241 47.979 7.098C48.582 5.949 50.433 2.727 50.7 2.328C50.967 1.923 50.655 0.747004 49.587 1.239C48.516 1.731 42.018 4.314 41.118 8.019C40.197 11.787 41.889 15.156 38.568 18.501L34.539 22.701L38.586 27.399L43.548 22.689C44.73 21.501 47.256 20.346 49.542 20.868C54.441 21.975 57.114 20.136 58.725 17.094C60.171 14.376 59.931 8.652 59.706 7.17ZM8.21703 48.159C7.91695 48.4613 7.74856 48.87 7.74856 49.296C7.74856 49.722 7.91695 50.1307 8.21703 50.433L11.07 53.223C11.694 53.85 12.684 53.586 13.308 52.959L28.029 38.487L23.52 33.345L8.21703 48.159Z" fill="white"/>
</g>
<defs>
<clipPath id="clip0_123_298">
<rect width="60" height="54" fill="white"/>
</clipPath>
</defs>
</svg>
