<svg width="38" height="38" viewBox="0 0 38 38" fill="none" xmlns="http://www.w3.org/2000/svg">
<g clip-path="url(#clip0_142_937)">
<path d="M36.48 0H1.52C0.67925 0 0 0.67925 0 1.52V36.48C0 37.3208 0.67925 38 1.52 38H36.48C37.3208 38 38 37.3208 38 36.48V1.52C38 0.67925 37.3208 0 36.48 0ZM15.5895 31.0175H13.1765C13.072 31.0175 12.9627 30.9652 12.8962 30.8797L11.21 28.8135L9.52375 30.8797C9.49086 30.9228 9.44844 30.9577 9.39981 30.9816C9.35118 31.0055 9.29768 31.0178 9.2435 31.0175H6.8305C6.517 31.0175 6.346 30.6423 6.555 30.3953L9.53325 26.7472L6.62625 23.1895C6.422 22.9425 6.593 22.5672 6.9065 22.5672H9.32425C9.42875 22.5672 9.538 22.6195 9.6045 22.705L11.2195 24.681L12.8345 22.705C12.9058 22.6147 13.0055 22.5672 13.1147 22.5672H15.5277C15.8412 22.5672 16.0122 22.9425 15.808 23.1895L12.8962 26.7425L15.8745 30.3905C16.074 30.6422 15.903 31.0175 15.5895 31.0175ZM15.96 12.8725C15.96 12.977 15.8935 13.0625 15.808 13.0625H12.54V16.3258C12.54 16.416 12.4545 16.4825 12.35 16.4825H10.07C9.9655 16.4825 9.88 16.416 9.88 16.3305V13.0625H6.612C6.5265 13.0625 6.46 12.977 6.46 12.8725V10.5925C6.46 10.488 6.5265 10.4025 6.612 10.4025H9.88V7.1345C9.88 7.049 9.9655 6.9825 10.07 6.9825H12.35C12.4545 6.9825 12.54 7.049 12.54 7.1345V10.4025H15.8033C15.8935 10.4025 15.96 10.488 15.96 10.5925V12.8725ZM31.54 30.4C31.54 30.5045 31.4735 30.59 31.388 30.59H22.192C22.1065 30.59 22.04 30.5045 22.04 30.4V28.12C22.04 28.0155 22.1065 27.93 22.192 27.93H31.3832C31.4735 27.93 31.54 28.0155 31.54 28.12V30.4ZM31.54 25.46C31.54 25.5645 31.4735 25.65 31.388 25.65H22.192C22.1065 25.65 22.04 25.5645 22.04 25.46V23.18C22.04 23.0755 22.1065 22.99 22.192 22.99H31.3832C31.4735 22.99 31.54 23.0755 31.54 23.18V25.46ZM31.54 12.8725C31.54 12.977 31.4735 13.0625 31.388 13.0625H22.192C22.1065 13.0625 22.04 12.977 22.04 12.8725V10.5925C22.04 10.488 22.1065 10.4025 22.192 10.4025H31.3832C31.4735 10.4025 31.54 10.488 31.54 10.5925V12.8725Z" fill="white"/>
</g>
<defs>
<clipPath id="clip0_142_937">
<rect width="38" height="38" fill="white"/>
</clipPath>
</defs>
</svg>
