<svg width="60" height="36" viewBox="0 0 60 36" fill="none" xmlns="http://www.w3.org/2000/svg">
<g clip-path="url(#clip0_123_296)">
<path d="M56 0H4C2.93913 0 1.92172 0.421427 1.17157 1.17157C0.421427 1.92172 0 2.93913 0 4V32C0 33.0609 0.421427 34.0783 1.17157 34.8284C1.92172 35.5786 2.93913 36 4 36H56C57.0609 36 58.0783 35.5786 58.8284 34.8284C59.5786 34.0783 60 33.0609 60 32V4C60 2.93913 59.5786 1.92172 58.8284 1.17157C58.0783 0.421427 57.0609 0 56 0ZM16.75 32L4 21.075V14.925L16.75 4H43.25L56 14.925V21.075L43.25 32H16.75ZM40 18C40 19.9778 39.4135 21.9112 38.3147 23.5557C37.2159 25.2002 35.6541 26.4819 33.8268 27.2388C31.9996 27.9957 29.9889 28.1937 28.0491 27.8079C26.1093 27.422 24.3275 26.4696 22.9289 25.0711C21.5304 23.6725 20.578 21.8907 20.1921 19.9509C19.8063 18.0111 20.0043 16.0004 20.7612 14.1732C21.5181 12.3459 22.7998 10.7841 24.4443 9.6853C26.0888 8.58649 28.0222 8 30 8C32.6522 8 35.1957 9.05357 37.0711 10.9289C38.9464 12.8043 40 15.3478 40 18Z" fill="white"/>
</g>
<defs>
<clipPath id="clip0_123_296">
<rect width="60" height="36" fill="white"/>
</clipPath>
</defs>
</svg>
