<svg width="110" height="122" viewBox="0 0 110 122" fill="none" xmlns="http://www.w3.org/2000/svg">
<path d="M64.684 3.62312C58.692 0.125626 51.308 0.125629 45.316 3.62312L10.6758 23.8424C4.68505 27.3391 1 33.7974 1 40.7807V81.2193C1 88.2026 4.68505 94.6609 10.6758 98.1576L45.316 118.377C51.308 121.874 58.692 121.874 64.684 118.377L99.3242 98.1576C105.315 94.6609 109 88.2026 109 81.2193V40.7807C109 33.7974 105.315 27.3391 99.3242 23.8424L64.684 3.62312Z" stroke="#F88015" stroke-width="2"/>
<circle cx="29" cy="13" r="10" fill="#F88015"/>
<path d="M25.2193 15.452H32.5153V13.988H30.7993L30.5953 14.168H27.5953L29.5753 11.336V14.756L29.4313 14.888V17H31.1953V8.6H30.0313L25.2193 15.452Z" fill="white"/>
<circle cx="55" cy="61" r="40" fill="#00ACEC"/>
<path d="M72.9899 50.0345C72.9566 49.6904 72.8387 49.3605 72.647 49.0758C72.4553 48.7911 72.1962 48.5609 71.8939 48.4067L55.8939 40.2165C55.616 40.0741 55.3096 40 54.9989 40C54.6882 40 54.3817 40.0741 54.1039 40.2165L38.1039 48.4067C37.8024 48.5618 37.5441 48.7923 37.3529 49.0768C37.1616 49.3614 37.0437 49.6908 37.0099 50.0345C36.9879 50.2535 35.0879 72.0804 54.1879 80.7764C54.4431 80.8943 54.7199 80.9553 54.9999 80.9553C55.2799 80.9553 55.5567 80.8943 55.8119 80.7764C74.9119 72.0804 73.0119 50.2556 72.9899 50.0345ZM54.9999 76.6464C41.4619 69.9469 40.8219 55.6488 40.9319 51.5394L54.9999 44.3382L69.0579 51.5353C69.1319 55.6079 68.4019 70.0001 54.9999 76.6464Z" fill="white"/>
<path d="M52.9999 61.6768L48.4139 56.9818L45.5859 59.8771L52.9999 67.4673L64.4139 55.782L61.5859 52.8867L52.9999 61.6768Z" fill="white"/>
</svg>
