<svg width="301" height="150" viewBox="0 0 301 150" fill="none" xmlns="http://www.w3.org/2000/svg">
<path d="M72.1916 143.601V140.488C72.1245 140.073 72.1488 139.648 72.2628 139.243C72.3767 138.838 72.5776 138.463 72.8512 138.145C73.1249 137.826 73.4647 137.571 73.8468 137.399C74.229 137.226 74.6441 137.139 75.0632 137.144C75.5011 137.103 75.9425 137.163 76.3535 137.32C76.7645 137.477 77.1341 137.727 77.4337 138.05C77.7334 138.373 77.9551 138.761 78.0818 139.184C78.2085 139.606 78.2368 140.053 78.1645 140.488H77.2456C77.2456 138.903 76.4703 138.182 75.2068 138.182C73.9433 138.182 73.2828 138.903 73.2828 140.488V143.601C73.2828 145.186 74.0295 145.907 75.2068 145.907C76.3842 145.907 77.2169 145.186 77.2744 143.601H78.3368C78.4201 144.043 78.3991 144.499 78.2754 144.932C78.1518 145.364 77.9289 145.762 77.6246 146.092C77.3204 146.423 76.9432 146.678 76.5233 146.836C76.1035 146.994 75.6526 147.051 75.2068 147.002C74.7702 147.032 74.3326 146.96 73.9276 146.794C73.5226 146.628 73.1608 146.371 72.8699 146.042C72.579 145.714 72.3666 145.324 72.2491 144.901C72.1315 144.477 72.1119 144.033 72.1916 143.601Z" fill="#00ACEC"/>
<path d="M84.8841 138.355H82.5582V146.801H81.4957V138.355H79.1697V137.375H84.9129L84.8841 138.355Z" fill="#00ACEC"/>
<path d="M92.4078 140.748V143.457C92.4078 145.792 91.2879 147.002 89.5362 147.002C89.114 147.013 88.6955 146.921 88.3157 146.736C87.936 146.55 87.6061 146.276 87.3538 145.936V149.885H86.1477V137.346H87.0092V138.211C87.2629 137.864 87.5964 137.583 87.9813 137.392C88.3662 137.201 88.7912 137.107 89.2203 137.116C91.173 137.145 92.4078 138.355 92.4078 140.748ZM91.3453 140.748C91.3453 138.903 90.57 138.125 89.2777 138.125C87.9855 138.125 87.3251 138.96 87.3251 140.719V143.601C87.3251 145.1 88.1004 146.138 89.2777 146.138C90.4551 146.138 91.3453 145.388 91.3453 143.601V140.748Z" fill="#00ACEC"/>
<path d="M94.2742 143.572V140.546C94.2742 139.713 94.6039 138.913 95.1909 138.324C95.7779 137.735 96.5741 137.404 97.4042 137.404C98.2343 137.404 99.0305 137.735 99.6175 138.324C100.204 138.913 100.534 139.713 100.534 140.546V143.572C100.534 144.406 100.204 145.205 99.6175 145.794C99.0305 146.383 98.2343 146.714 97.4042 146.714C96.5741 146.714 95.7779 146.383 95.1909 145.794C94.6039 145.205 94.2742 144.406 94.2742 143.572ZM99.4717 143.572V140.546C99.4717 138.903 98.6677 138.182 97.4042 138.182C96.1407 138.182 95.3654 138.903 95.3654 140.546V143.572C95.3654 145.215 96.1407 145.936 97.4042 145.936C98.6677 145.936 99.4717 145.215 99.4717 143.572Z" fill="#00ACEC"/>
<path d="M102.659 137.346H103.722V142.736C103.722 143.428 103.722 144.149 103.722 144.84L104.354 143.428L107.225 137.289H108.316V146.714H107.254V141.699C107.254 140.719 107.254 139.94 107.254 139.191C107.043 139.774 106.793 140.342 106.507 140.892L103.636 146.656H102.544L102.659 137.346Z" fill="#00ACEC"/>
<path d="M115.524 138.355H113.198V146.801H112.136V138.355H109.81V137.375H115.553L115.524 138.355Z" fill="#00ACEC"/>
<path d="M122.502 143.889C122.483 144.3 122.384 144.703 122.21 145.075C122.036 145.447 121.791 145.782 121.488 146.059C121.185 146.336 120.831 146.55 120.446 146.69C120.061 146.829 119.652 146.892 119.243 146.873C118.834 146.854 118.432 146.754 118.061 146.579C117.691 146.405 117.358 146.159 117.082 145.855C116.806 145.551 116.592 145.196 116.453 144.809C116.314 144.422 116.252 144.012 116.271 143.601V140.488C116.271 140.079 116.351 139.675 116.507 139.297C116.663 138.919 116.891 138.576 117.179 138.287C117.467 137.998 117.809 137.769 118.185 137.612C118.561 137.456 118.965 137.375 119.372 137.375C119.779 137.375 120.183 137.456 120.559 137.612C120.935 137.769 121.277 137.998 121.565 138.287C121.853 138.576 122.081 138.919 122.237 139.297C122.393 139.675 122.473 140.079 122.473 140.488V142.563H117.362V143.572C117.362 145.158 118.108 145.878 119.343 145.878C120.578 145.878 121.296 145.244 121.439 143.861L122.502 143.889ZM117.362 140.488V141.583H121.439V140.488C121.439 138.903 120.664 138.182 119.372 138.182C118.08 138.182 117.362 138.932 117.362 140.488Z" fill="#00ACEC"/>
<path d="M123.478 145.82C124.598 145.82 124.799 144.293 124.914 142.419C125.029 140.546 125.058 139.104 125.086 137.346H129.911V146.772H128.848V138.355H125.977C125.977 139.767 125.977 141.554 125.804 142.563C125.632 145.446 125.029 146.829 123.335 146.829L123.478 145.82Z" fill="#00ACEC"/>
<path d="M138.095 143.716C138.121 144.132 138.058 144.548 137.909 144.937C137.76 145.326 137.528 145.677 137.231 145.968C136.933 146.258 136.577 146.48 136.186 146.619C135.794 146.758 135.378 146.81 134.965 146.772H132.093V137.346H133.156V140.661H134.965C135.378 140.623 135.794 140.675 136.186 140.813C136.577 140.952 136.933 141.174 137.231 141.465C137.528 141.755 137.76 142.107 137.909 142.495C138.058 142.884 138.121 143.301 138.095 143.716ZM137.032 143.716C137.044 143.448 137.001 143.18 136.904 142.93C136.807 142.679 136.66 142.452 136.471 142.262C136.281 142.072 136.055 141.924 135.806 141.827C135.556 141.73 135.289 141.686 135.022 141.699H133.299V145.763H134.965C135.236 145.775 135.506 145.731 135.759 145.632C136.012 145.534 136.242 145.383 136.433 145.191C136.625 144.998 136.775 144.768 136.873 144.514C136.971 144.26 137.016 143.988 137.003 143.716H137.032Z" fill="#00ACEC"/>
<path d="M145.188 137.346V146.772H144.154V142.39H140.708V146.772H139.646V137.346H140.708V141.382H144.154V137.346H145.188Z" fill="#00ACEC"/>
<path d="M153.171 140.258V146.772H152.194V145.878C151.958 146.232 151.637 146.52 151.261 146.717C150.884 146.913 150.465 147.012 150.041 147.002C149.279 147.002 148.549 146.699 148.01 146.158C147.471 145.618 147.169 144.884 147.169 144.12C147.169 142.304 148.346 141.238 150.385 141.238H152.194V140.229C152.194 138.845 151.562 138.096 150.328 138.096C150.097 138.076 149.864 138.103 149.644 138.176C149.424 138.249 149.221 138.365 149.046 138.519C148.872 138.672 148.73 138.859 148.63 139.069C148.529 139.279 148.472 139.506 148.461 139.739H147.399C147.45 139.01 147.775 138.327 148.308 137.83C148.841 137.332 149.542 137.056 150.27 137.058C150.678 137.052 151.082 137.132 151.456 137.295C151.831 137.457 152.166 137.698 152.44 138C152.715 138.303 152.922 138.661 153.048 139.05C153.174 139.439 153.215 139.851 153.171 140.258ZM152.194 143.947V142.275H150.299C148.921 142.275 148.203 142.909 148.203 144.12C148.203 145.331 149.035 145.936 150.242 145.936C150.505 145.953 150.769 145.914 151.016 145.819C151.262 145.725 151.486 145.579 151.671 145.39C151.857 145.201 151.999 144.975 152.089 144.726C152.18 144.477 152.215 144.211 152.194 143.947Z" fill="#00ACEC"/>
<path d="M160.436 137.346V146.772H159.373V143.313H157.937L155.784 146.772H154.52L156.789 143.284C156.194 143.083 155.682 142.693 155.329 142.173C154.977 141.652 154.803 141.03 154.836 140.402C154.836 139.637 155.139 138.904 155.677 138.363C156.216 137.823 156.946 137.519 157.708 137.519L160.436 137.346ZM159.373 138.384H157.937C157.679 138.366 157.42 138.405 157.178 138.498C156.936 138.59 156.717 138.735 156.536 138.922C156.356 139.109 156.218 139.333 156.133 139.578C156.047 139.824 156.017 140.085 156.042 140.344C156.042 141.612 156.645 142.333 157.823 142.333H159.459L159.373 138.384Z" fill="#00ACEC"/>
<path d="M168.562 142.275L167.844 143.169V146.772H166.782V137.346H167.844V141.612L169.223 139.912L171.319 137.346H172.669L169.252 141.439L173.128 146.772H171.836L168.562 142.275Z" fill="#00ACEC"/>
<path d="M173.731 143.572V140.546C173.731 139.713 174.061 138.913 174.648 138.324C175.235 137.735 176.031 137.404 176.861 137.404C177.691 137.404 178.488 137.735 179.075 138.324C179.662 138.913 179.991 139.713 179.991 140.546V143.572C179.991 144.406 179.662 145.205 179.075 145.794C178.488 146.383 177.691 146.714 176.861 146.714C176.031 146.714 175.235 146.383 174.648 145.794C174.061 145.205 173.731 144.406 173.731 143.572ZM178.9 143.572V140.546C178.9 138.903 178.125 138.182 176.861 138.182C175.598 138.182 174.794 138.903 174.794 140.546V143.572C174.794 145.215 175.598 145.936 176.861 145.936C178.125 145.936 178.9 145.215 178.9 143.572Z" fill="#00ACEC"/>
<path d="M189.353 137.346V146.772H188.319V141.583C188.319 140.661 188.319 139.998 188.319 139.277C188.06 139.998 187.802 140.747 187.486 141.439L186.194 144.322H185.131L183.839 141.439C183.523 140.747 183.265 139.969 183.006 139.277C183.006 139.998 183.006 140.69 183.006 141.583V146.772H181.973V137.346H183.064L184.988 141.641L185.591 143.14L186.194 141.641L188.118 137.346H189.353Z" fill="#00ACEC"/>
<path d="M191.707 137.346H197.45V146.772H196.388V138.355H192.77V146.772H191.707V137.346Z" fill="#00ACEC"/>
<path d="M205.376 140.257V146.772H204.457V145.878C204.219 146.23 203.898 146.517 203.522 146.713C203.146 146.909 202.727 147.009 202.303 147.002C201.542 147.002 200.811 146.699 200.273 146.158C199.734 145.617 199.432 144.884 199.432 144.12C199.432 142.304 200.581 141.237 202.648 141.237H204.515V140.229C204.515 138.845 203.883 138.096 202.648 138.096C202.417 138.076 202.185 138.103 201.964 138.176C201.744 138.249 201.541 138.365 201.367 138.519C201.192 138.672 201.051 138.859 200.95 139.069C200.85 139.278 200.792 139.506 200.782 139.739H199.719C199.77 139.01 200.095 138.327 200.628 137.83C201.161 137.332 201.863 137.056 202.591 137.058C202.989 137.068 203.38 137.16 203.741 137.33C204.101 137.499 204.422 137.742 204.684 138.043C204.946 138.344 205.143 138.696 205.262 139.077C205.381 139.458 205.42 139.86 205.376 140.257ZM204.314 143.947V142.275H202.418C201.04 142.275 200.322 142.909 200.322 144.12C200.322 145.33 201.155 145.936 202.39 145.936C202.651 145.949 202.912 145.906 203.155 145.81C203.398 145.714 203.618 145.567 203.8 145.378C203.982 145.19 204.122 144.965 204.211 144.718C204.299 144.471 204.334 144.208 204.314 143.947Z" fill="#00ACEC"/>
<path d="M213.416 137.346V146.772H212.498V142.39H208.793V146.772H207.731V137.346H208.793V141.382H212.498V137.346H213.416Z" fill="#00ACEC"/>
<path d="M215.771 137.346H216.834V142.736C216.834 143.428 216.834 144.149 216.834 144.84L217.465 143.428L220.337 137.289H221.428V146.714H220.366V141.699C220.366 140.719 220.366 139.94 220.366 139.191C220.152 139.773 219.903 140.341 219.619 140.892L216.747 146.656H215.656L215.771 137.346Z" fill="#00ACEC"/>
<path d="M228.808 137.346V146.772H227.746V143.313H226.31L224.156 146.772H222.893L225.161 143.284C224.567 143.083 224.054 142.693 223.702 142.173C223.349 141.652 223.176 141.03 223.209 140.402C223.209 139.637 223.511 138.904 224.05 138.363C224.588 137.823 225.319 137.519 226.08 137.519L228.808 137.346ZM227.746 138.384H226.195C225.935 138.361 225.674 138.396 225.429 138.487C225.185 138.578 224.964 138.723 224.782 138.911C224.601 139.098 224.463 139.325 224.38 139.572C224.296 139.82 224.269 140.084 224.3 140.344C224.3 141.612 224.903 142.333 226.08 142.333H227.717L227.746 138.384Z" fill="#00ACEC"/>
<path d="M20.4745 123.194H14.5016V94.7156H6.28882V123.194H0.315918V89.0084H20.417L20.4745 123.194Z" fill="#00ACEC"/>
<path d="M47.1802 100.394C47.1802 107.571 43.16 111.722 36.2969 111.722H32.851V123.251H26.8494V89.0084H36.2969C43.0738 89.0084 47.1802 93.2167 47.1802 100.394ZM41.0637 100.394C41.0637 96.6468 39.4556 94.6291 36.2395 94.6291H32.851V105.957H36.2682C39.4556 106.043 41.0637 104.141 41.0637 100.394Z" fill="#00ACEC"/>
<path d="M68.9182 117.515V123.28H51.2292V89.0084H68.4588V94.7732H57.2022V103.219H67.425V108.695H57.2022V117.631L68.9182 117.515Z" fill="#00ACEC"/>
<path d="M72.8809 112.212V99.9903C72.8809 92.7555 76.8724 88.4607 83.6206 88.4607C90.3688 88.4607 94.3029 92.8131 94.3029 99.9903V112.183C94.3029 119.418 90.3114 123.712 83.6206 123.712C76.9298 123.712 72.8809 119.418 72.8809 112.212ZM88.1577 112.212V99.9903C88.1577 96.272 86.6358 94.2255 83.6493 94.2255C80.6629 94.2255 79.0835 96.272 79.0835 99.9903V112.183C79.0835 115.901 80.6342 117.948 83.6493 117.948C86.6645 117.948 88.129 115.901 88.129 112.212H88.1577Z" fill="#00ACEC"/>
<path d="M99.759 89.0084H118.108V94.6291H105.761V102.239H109.551C110.953 102.101 112.367 102.276 113.694 102.751C115.02 103.226 116.226 103.989 117.225 104.986C118.223 105.983 118.99 107.188 119.471 108.517C119.951 109.846 120.133 111.265 120.004 112.673C120.004 119.764 116.443 123.165 109.551 123.165H99.7877L99.759 89.0084ZM109.12 117.487C109.763 117.568 110.416 117.5 111.028 117.287C111.641 117.074 112.196 116.723 112.651 116.261C113.107 115.798 113.45 115.236 113.654 114.619C113.859 114.002 113.919 113.346 113.83 112.702C113.917 112.055 113.856 111.398 113.651 110.778C113.447 110.159 113.105 109.595 112.651 109.128C112.197 108.661 111.643 108.305 111.032 108.085C110.42 107.865 109.766 107.788 109.12 107.859H105.732V117.487H109.12Z" fill="#00ACEC"/>
<path d="M144.9 100.394C144.9 107.571 140.851 111.722 134.017 111.722H130.571V123.251H124.57V89.0084H134.017C140.851 89.0084 144.9 93.2167 144.9 100.394ZM138.784 100.394C138.784 96.6468 137.176 94.6291 133.96 94.6291H130.542V105.957H133.96C137.176 106.043 138.755 104.141 138.755 100.394H138.784Z" fill="#00ACEC"/>
<path d="M159.919 116.997H151.936L150.586 123.194H144.355L152.711 89.0084H159.115L167.471 123.194H161.297L159.919 116.997ZM158.713 111.232L157.363 104.89C156.875 102.556 156.329 98.7798 156.013 96.5027H155.87C155.583 98.8086 155.037 102.556 154.549 104.89L153.199 111.232H158.713Z" fill="#00ACEC"/>
<path d="M190.329 109.531L188.663 112.125V123.165H182.92V112.096L181.255 109.502L174.449 123.165H167.701L178.038 104.429L168.591 89.0084H175.397L180.91 98.8662L182.92 102.959V89.0084H188.663V103.017L190.76 98.7798L196.158 89.0084H202.906L193.459 104.487L203.883 123.194H197.278L190.329 109.531Z" fill="#00ACEC"/>
<path d="M224.271 117.515V123.28H206.754V89.0084H223.984V94.7732H212.641V103.219H222.864V108.695H212.641V117.631L224.271 117.515Z" fill="#00ACEC"/>
<path d="M249.512 89.0084V123.194H243.482V108.782H235.269V123.194H229.268V89.0084H235.24V103.075H243.453V89.0084H249.512Z" fill="#00ACEC"/>
<path d="M255.945 89.0085H261.688V100.192C261.688 103.075 261.401 108.205 260.97 111.924H261.114C261.832 110.021 262.664 107.686 263.583 105.611L270.82 88.922H276.793V123.194H271.049V112.414C271.049 109.185 271.279 103.766 271.681 100.019L271.538 99.8751C270.676 102.21 269.728 104.948 268.666 107.283L261.803 123.05H255.945V89.0085Z" fill="#00ACEC"/>
<path d="M300.914 117.515V123.28H283.311V89.0084H300.541V94.7732H289.399V103.219H299.622V108.695H289.399V117.631L300.914 117.515Z" fill="#00ACEC"/>
<path d="M301 139.594H237.681V145.359H301V139.594Z" fill="#00ACEC"/>
<path d="M63.3185 139.594H0V145.359H63.3185V139.594Z" fill="#00ACEC"/>
<path d="M186.711 25.4226H179.446V31.6774H186.711V25.4226Z" fill="#00ACEC"/>
<path d="M196.072 25.4226H188.807V31.6774H196.072V25.4226Z" fill="#00ACEC"/>
<path d="M186.711 34.5022H179.446V40.757H186.711V34.5022Z" fill="#00ACEC"/>
<path d="M196.072 34.5022H188.807V40.757H196.072V34.5022Z" fill="#00ACEC"/>
<path d="M149.437 54.708H142.172V60.9628H149.437V54.708Z" fill="#00ACEC"/>
<path d="M158.799 54.708H151.534V60.9628H158.799V54.708Z" fill="#00ACEC"/>
<path d="M149.437 63.7874H142.172V70.0422H149.437V63.7874Z" fill="#00ACEC"/>
<path d="M158.799 63.7874H151.534V70.0422H158.799V63.7874Z" fill="#00ACEC"/>
<path d="M112.05 25.4226H104.784V31.6774H112.05V25.4226Z" fill="#00ACEC"/>
<path d="M121.411 25.4226H114.146V31.6774H121.411V25.4226Z" fill="#00ACEC"/>
<path d="M112.05 34.5022H104.784V40.757H112.05V34.5022Z" fill="#00ACEC"/>
<path d="M121.411 34.5022H114.146V40.757H121.411V34.5022Z" fill="#00ACEC"/>
<path d="M237.653 69.1776V46.1184L242.333 49.779C242.631 50.0118 242.972 50.1834 243.336 50.284C243.7 50.3847 244.08 50.4124 244.455 50.3655C244.829 50.3187 245.191 50.1982 245.52 50.0111C245.848 49.8239 246.136 49.5736 246.368 49.2746C246.6 48.9756 246.771 48.6336 246.871 48.2682C246.971 47.9029 246.999 47.5213 246.952 47.1452C246.906 46.7692 246.786 46.406 246.599 46.0765C246.413 45.747 246.163 45.4576 245.865 45.2248L237.653 38.7971V12.7402H221.112V26.1145L187.716 0L150.098 28.824L113.141 0L79.7153 26.1145V12.7402H63.175V39.0277L54.9335 45.4554C54.4592 45.8249 54.1122 46.3342 53.9413 46.9119C53.7703 47.4896 53.7841 48.1065 53.9806 48.676C54.1771 49.2454 54.5464 49.7387 55.0367 50.0865C55.527 50.4343 56.1135 50.6191 56.7139 50.6149C57.3484 50.6129 57.9643 50.4001 58.4656 50.0096L63.175 46.3201V69.3793H0V75.1441H101.453L150.5 36.5776L199.26 74.9423H300.856V69.1776H237.653ZM226.856 18.505H231.881V34.5888L226.856 30.6111V18.505ZM68.9181 18.505H73.9434V30.6111L68.9181 34.5888V18.505ZM99.4719 69.1776H68.9181V41.8524L113.112 7.26364L145.791 32.8593L99.4719 69.1776ZM154.779 32.5999L187.687 7.29247L231.91 41.8812V69.1776H201.27L154.779 32.5999Z" fill="#00ACEC"/>
</svg>
