<svg width="110" height="122" viewBox="0 0 110 122" fill="none" xmlns="http://www.w3.org/2000/svg">
<path d="M64.684 3.62312C58.692 0.125626 51.308 0.125629 45.316 3.62312L10.6758 23.8424C4.68505 27.3391 1 33.7974 1 40.7807V81.2193C1 88.2026 4.68505 94.6609 10.6758 98.1576L45.316 118.377C51.308 121.874 58.692 121.874 64.684 118.377L99.3242 98.1576C105.315 94.6609 109 88.2026 109 81.2193V40.7807C109 33.7974 105.315 27.3391 99.3242 23.8424L64.684 3.62312Z" stroke="#F88015" stroke-width="2"/>
<circle cx="29" cy="13" r="10" fill="#F88015"/>
<path d="M28.6359 12.908C29.2679 12.908 29.8319 12.824 30.3279 12.656C30.8239 12.488 31.2159 12.244 31.5039 11.924C31.7919 11.596 31.9359 11.204 31.9359 10.748C31.9359 10.324 31.8279 9.94 31.6119 9.596C31.3959 9.252 31.0799 8.976 30.6639 8.768C30.2559 8.56 29.7599 8.456 29.1759 8.456C28.6239 8.456 28.1399 8.564 27.7239 8.78C27.3079 8.996 26.9799 9.292 26.7399 9.668C26.5079 10.036 26.3919 10.46 26.3919 10.94H27.9879C27.9879 10.628 28.0999 10.372 28.3239 10.172C28.5559 9.964 28.8399 9.86 29.1759 9.86C29.4159 9.86 29.6119 9.9 29.7639 9.98C29.9159 10.06 30.0319 10.176 30.1119 10.328C30.1919 10.48 30.2319 10.656 30.2319 10.856C30.2319 11.016 30.1919 11.172 30.1119 11.324C30.0399 11.468 29.9359 11.6 29.7999 11.72C29.6639 11.832 29.4959 11.92 29.2959 11.984C29.1039 12.048 28.8839 12.08 28.6359 12.08V12.908ZM29.1039 17.168C29.7279 17.168 30.2679 17.068 30.7239 16.868C31.1879 16.66 31.5439 16.372 31.7919 16.004C32.0479 15.636 32.1759 15.212 32.1759 14.732C32.1759 14.308 32.0879 13.948 31.9119 13.652C31.7359 13.348 31.4879 13.1 31.1679 12.908C30.8479 12.708 30.4719 12.564 30.0399 12.476C29.6159 12.388 29.1479 12.344 28.6359 12.344V13.256C28.9319 13.256 29.1919 13.288 29.4159 13.352C29.6479 13.408 29.8399 13.492 29.9919 13.604C30.1519 13.716 30.2719 13.856 30.3519 14.024C30.4319 14.184 30.4719 14.36 30.4719 14.552C30.4719 14.816 30.4159 15.036 30.3039 15.212C30.1919 15.388 30.0359 15.524 29.8359 15.62C29.6439 15.708 29.4159 15.752 29.1519 15.752C28.8959 15.752 28.6599 15.704 28.4439 15.608C28.2279 15.504 28.0559 15.356 27.9279 15.164C27.7999 14.972 27.7359 14.74 27.7359 14.468H26.0319C26.0319 14.828 26.1039 15.172 26.2479 15.5C26.3919 15.82 26.5959 16.108 26.8599 16.364C27.1239 16.612 27.4439 16.808 27.8199 16.952C28.1959 17.096 28.6239 17.168 29.1039 17.168Z" fill="white"/>
<circle cx="55" cy="61" r="40" fill="#00ACEC"/>
<path d="M75.1349 75.8102C73.3137 74.407 68.4648 70.5316 63.9486 65.8745C60.947 62.7773 59.6703 59.6766 57.3947 57.3295C55.3336 55.2038 53.4587 53.9649 53.4587 53.9649L52.9307 54.5094L49.364 50.8313L50.7417 49.4102C50.8536 49.2935 50.916 49.1381 50.916 48.9764C50.916 48.8147 50.8536 48.6593 50.7417 48.5426L50.4571 48.249C50.4585 48.2476 54.512 42.793 59.6373 44.3014C60.2327 44.4781 60.7634 44.7785 60.914 44.6252C61.1189 44.4148 60.3386 43.6063 59.8814 43.1388C53.3976 36.5045 46.2455 43.8978 46.2421 43.9013L45.9897 43.6407C45.9355 43.584 45.8702 43.5389 45.7981 43.5081C45.7259 43.4773 45.6482 43.4614 45.5697 43.4614C45.4912 43.4614 45.4135 43.4773 45.3413 43.5081C45.2691 43.5389 45.2039 43.584 45.1496 43.6407L38.7978 50.1912C38.686 50.3079 38.6235 50.4633 38.6235 50.625C38.6235 50.7867 38.686 50.9421 38.7978 51.0588C38.7978 51.0588 39.5754 52.4194 37.5362 52.6641C36.7154 52.7638 36.2011 52.9488 35.9096 53.1928C35.4546 53.6517 35.0011 54.1121 34.5491 54.574C34.4372 54.6907 34.3748 54.8462 34.3748 55.0078C34.3748 55.1695 34.4372 55.3249 34.5491 55.4416L39.3024 60.3449C39.3568 60.4016 39.422 60.4467 39.4943 60.4776C39.5665 60.5084 39.6443 60.5243 39.7228 60.5243C39.8014 60.5243 39.8791 60.5084 39.9514 60.4776C40.0236 60.4467 40.0889 60.4016 40.1432 60.3449C40.1432 60.3449 41.4536 58.9768 41.4818 58.941C41.7176 58.6399 41.8977 58.1105 41.9926 57.2635C42.2319 55.1598 43.5491 55.9628 43.5491 55.9628C43.6034 56.0197 43.6687 56.065 43.741 56.0959C43.8134 56.1269 43.8912 56.1428 43.9699 56.1428C44.0485 56.1428 44.1264 56.1269 44.1987 56.0959C44.271 56.065 44.3363 56.0197 44.3906 55.9628L45.7684 54.5417L49.3337 58.2191L48.8057 58.7643C48.8057 58.7643 50.0075 60.6983 52.0686 62.824C54.3436 65.1705 57.3507 66.487 60.353 69.5842C64.8678 74.2413 68.625 79.2415 69.9876 81.1204C70.5019 81.8279 70.5837 81.7626 71.2114 81.1143L73.1701 79.0944L75.1274 77.0752C75.7564 76.4248 75.8211 76.341 75.1349 75.8102Z" fill="white"/>
<path d="M56.3804 54.5986C56.9705 55.1316 57.543 55.6838 58.0971 56.2541C59.1916 57.383 60.1074 58.6459 61.0252 59.9941L67.1728 53.8458C68.3128 54.1244 69.5053 54.1046 70.6355 53.7885C71.7656 53.4723 72.7953 52.8704 73.6252 52.0407C74.4552 51.2111 75.0575 50.1816 75.374 49.0516C75.6905 47.9215 75.7106 46.729 75.4324 45.5889L69.8527 51.1686L65.8927 50.1078L64.8312 46.1458L70.4095 40.5695C69.2698 40.2906 68.0774 40.3105 66.9476 40.6272C65.8177 40.944 64.7888 41.5468 63.9601 42.3776C63.13 43.2066 62.5275 44.2354 62.2107 45.3649C61.8939 46.4945 61.8734 47.6866 62.1513 48.8263L56.3804 54.5986ZM51.2111 63.3573C50.6215 62.7485 50.0531 62.1195 49.5068 61.4715L42.8264 68.1526C41.6866 67.8741 40.4944 67.8941 39.3646 68.2107C38.2349 68.5273 37.2059 69.1298 36.3769 69.9601C33.7074 72.6276 33.708 76.9547 36.3769 79.6229C37.0112 80.2576 37.7643 80.7611 38.5932 81.1047C39.4222 81.4482 40.3107 81.625 41.208 81.625C42.1053 81.625 42.9938 81.4482 43.8227 81.1047C44.6517 80.7611 45.4048 80.2576 46.039 79.6229C46.8692 78.7934 47.4717 77.764 47.7885 76.6341C48.1053 75.5041 48.1257 74.3116 47.8479 73.1714L54.7256 66.2943C53.4606 65.3745 52.2733 64.4525 51.2111 63.3573ZM42.2695 78.7518L38.3088 77.6903L37.248 73.729L40.1479 70.8311L44.1079 71.8906L45.1687 75.8526L42.2695 78.7518Z" fill="white"/>
</svg>
