<svg width="110" height="122" viewBox="0 0 110 122" fill="none" xmlns="http://www.w3.org/2000/svg">
<path d="M64.684 3.62312C58.692 0.125626 51.308 0.125629 45.316 3.62312L10.6758 23.8424C4.68505 27.3391 1 33.7974 1 40.7807V81.2193C1 88.2026 4.68505 94.6609 10.6758 98.1576L45.316 118.377C51.308 121.874 58.692 121.874 64.684 118.377L99.3242 98.1576C105.315 94.6609 109 88.2026 109 81.2193V40.7807C109 33.7974 105.315 27.3391 99.3242 23.8424L64.684 3.62312Z" stroke="#F88015" stroke-width="2"/>
<circle cx="29" cy="13" r="10" fill="#F88015"/>
<path d="M25.4666 17H32.2226V15.428H28.7066L30.8906 13.364C31.2426 13.044 31.5266 12.688 31.7426 12.296C31.9586 11.904 32.0666 11.484 32.0666 11.036C32.0666 10.732 32.0026 10.428 31.8746 10.124C31.7546 9.82 31.5666 9.544 31.3106 9.296C31.0626 9.04 30.7466 8.836 30.3626 8.684C29.9866 8.524 29.5466 8.444 29.0426 8.444C28.3626 8.444 27.7866 8.588 27.3146 8.876C26.8506 9.156 26.4986 9.536 26.2586 10.016C26.0186 10.496 25.8986 11.036 25.8986 11.636H27.5786C27.5786 11.3 27.6346 11.004 27.7466 10.748C27.8666 10.492 28.0306 10.296 28.2386 10.16C28.4546 10.016 28.7106 9.944 29.0066 9.944C29.2146 9.944 29.3986 9.98 29.5586 10.052C29.7186 10.116 29.8546 10.204 29.9666 10.316C30.0786 10.428 30.1626 10.556 30.2186 10.7C30.2746 10.844 30.3026 10.992 30.3026 11.144C30.3026 11.36 30.2626 11.568 30.1826 11.768C30.1026 11.968 29.9866 12.168 29.8346 12.368C29.6826 12.568 29.4986 12.784 29.2826 13.016L25.4666 17Z" fill="white"/>
<circle cx="55" cy="61" r="40" fill="#00ACEC"/>
<path d="M74.7584 62.7252L63.8334 73.6502H59.4251V69.2418L70.3501 58.3168L74.7584 62.7252ZM81.2751 61.1918C81.2751 61.7668 80.7001 62.3418 80.1251 62.9168L75.3334 67.7085L73.6084 65.9835L78.5918 61.0002L77.4418 59.8502L76.1001 61.1918L71.6918 56.7835L75.9084 52.7585C76.2917 52.3752 77.0584 52.3752 77.6334 52.7585L80.3168 55.4418C80.7001 55.8252 80.7001 56.5918 80.3168 57.1668C79.9334 57.5502 79.5501 57.9335 79.5501 58.3168C79.5501 58.7002 79.9334 59.0835 80.3168 59.4668C80.8918 60.0418 81.4668 60.6168 81.2751 61.1918ZM42.7501 76.3335V45.6668H56.1667V55.2502H65.7501V58.1252L69.5834 54.2918V53.3335L58.0834 41.8335H42.7501C40.6417 41.8335 38.9167 43.5585 38.9167 45.6668V76.3335C38.9167 78.4418 40.6417 80.1668 42.7501 80.1668H65.7501C67.8584 80.1668 69.5834 78.4418 69.5834 76.3335H42.7501ZM58.0834 70.7752C57.7001 70.7752 57.3167 70.9668 57.1251 70.9668L56.1667 66.7502H53.2917L49.2667 70.0085L50.4167 64.8335H47.5417L45.6251 74.4168H48.5001L54.0584 69.4335L55.2084 73.8418H57.1251L58.0834 73.6502V70.7752Z" fill="white"/>
</svg>
