<svg width="110" height="122" viewBox="0 0 110 122" fill="none" xmlns="http://www.w3.org/2000/svg">
<path d="M64.684 3.62312C58.692 0.125626 51.308 0.125629 45.316 3.62312L10.6758 23.8424C4.68505 27.3391 1 33.7974 1 40.7807V81.2193C1 88.2026 4.68505 94.6609 10.6758 98.1576L45.316 118.377C51.308 121.874 58.692 121.874 64.684 118.377L99.3242 98.1576C105.315 94.6609 109 88.2026 109 81.2193V40.7807C109 33.7974 105.315 27.3391 99.3242 23.8424L64.684 3.62312Z" stroke="#F88015" stroke-width="2"/>
<circle cx="29" cy="13" r="10" fill="#F88015"/>
<path d="M26.9047 10.784L28.9207 10.256V17H30.5887V8.456L26.9047 9.236V10.784Z" fill="white"/>
<circle cx="55" cy="61" r="40" fill="#00ACEC"/>
<g clip-path="url(#clip0_147_994)">
<path d="M60.9009 68.4655L63.9514 65.415C64.3597 65.0065 64.8789 64.7269 65.4446 64.6107C66.0104 64.4945 66.5978 64.5469 67.134 64.7613L70.8491 66.2484C71.3967 66.4675 71.8661 66.8456 72.1967 67.334C72.5273 67.8224 72.704 68.3987 72.704 68.9884V75.7445C72.7049 76.1461 72.6239 76.5436 72.4659 76.9128C72.3079 77.2819 72.0762 77.615 71.785 77.8915C71.4939 78.168 71.1493 78.3822 70.7725 78.5209C70.3957 78.6597 69.9945 78.72 69.5935 78.6984C43.5524 77.0778 38.2929 55.0214 37.3165 46.5752C37.2692 46.1623 37.3099 45.7441 37.4358 45.348C37.5617 44.9519 37.7701 44.587 38.0472 44.2772C38.3243 43.9675 38.6638 43.7199 39.0435 43.5507C39.4231 43.3816 39.8343 43.2947 40.2499 43.2959H46.8862C47.4759 43.2959 48.0522 43.4726 48.5406 43.8032C49.029 44.1338 49.4071 44.6032 49.6262 45.1507L51.1119 48.8658C51.3264 49.4021 51.3787 49.9895 51.2625 50.5552C51.1463 51.1209 50.8667 51.6401 50.4583 52.0485L47.4077 55.099C47.4077 55.099 49.0991 66.9906 60.9009 68.4655Z" fill="white"/>
<path d="M69.9802 56.9143V54.1906H63.7348L72.7039 45.2215L70.7782 43.2959L61.8091 52.265V46.0196H59.0854V56.9143H69.9802Z" fill="white"/>
</g>
<defs>
<clipPath id="clip0_147_994">
<rect width="36" height="36" fill="white" transform="translate(37 43)"/>
</clipPath>
</defs>
</svg>
